<?xml version="1.0" encoding="UTF-8" standalone="no"?>
<svg
   width="392.44876"
   zoomAndPan="magnify"
   viewBox="0 0 294.33657 175.67969"
   height="234.23959"
   preserveAspectRatio="xMidYMid"
   version="1.0"
   id="svg93"
   sodipodi:docname="main.svg"
   inkscape:version="1.3.2 (091e20e, 2023-11-25, custom)"
   xmlns:inkscape="http://www.inkscape.org/namespaces/inkscape"
   xmlns:sodipodi="http://sodipodi.sourceforge.net/DTD/sodipodi-0.dtd"
   xmlns="http://www.w3.org/2000/svg"
   xmlns:svg="http://www.w3.org/2000/svg">
  <sodipodi:namedview
     id="namedview93"
     pagecolor="#ffffff"
     bordercolor="#000000"
     borderopacity="0.25"
     inkscape:showpageshadow="2"
     inkscape:pageopacity="0.0"
     inkscape:pagecheckerboard="0"
     inkscape:deskcolor="#d1d1d1"
     inkscape:zoom="1.478"
     inkscape:cx="199.59405"
     inkscape:cy="117.38836"
     inkscape:window-width="1920"
     inkscape:window-height="974"
     inkscape:window-x="-11"
     inkscape:window-y="-11"
     inkscape:window-maximized="1"
     inkscape:current-layer="svg93" />
  <defs
     id="defs14">
    <g
       id="g1" />
    <clipPath
       id="7b196b641d">
      <path
         d="m 146,99.65625 h 41.5 V 166 H 146 Z m 0,0"
         clip-rule="nonzero"
         id="path1" />
    </clipPath>
    <clipPath
       id="2a7c6629ff">
      <path
         d="M 37.5,99.65625 H 147 V 166 H 37.5 Z m 0,0"
         clip-rule="nonzero"
         id="path2" />
    </clipPath>
    <clipPath
       id="3e85e417eb">
      <path
         d="m 146,125 h 41.5 v 54 H 146 Z m 0,0"
         clip-rule="nonzero"
         id="path3" />
    </clipPath>
    <clipPath
       id="acdf84763f">
      <path
         d="M 37.5,125 H 147 v 54 H 37.5 Z m 0,0"
         clip-rule="nonzero"
         id="path4" />
    </clipPath>
    <clipPath
       id="ccf71d2e2d">
      <path
         d="m 146,147 h 41.5 v 46 H 146 Z m 0,0"
         clip-rule="nonzero"
         id="path5" />
    </clipPath>
    <clipPath
       id="ed62652428">
      <path
         d="M 37.5,147 H 147 v 46 H 37.5 Z m 0,0"
         clip-rule="nonzero"
         id="path6" />
    </clipPath>
    <clipPath
       id="e074e0ffd9">
      <path
         d="m 146,169 h 41.5 v 37 H 146 Z m 0,0"
         clip-rule="nonzero"
         id="path7" />
    </clipPath>
    <clipPath
       id="4fc5840ab4">
      <path
         d="M 37.5,169 H 147 v 37 H 37.5 Z m 0,0"
         clip-rule="nonzero"
         id="path8" />
    </clipPath>
    <clipPath
       id="02a3dee117">
      <path
         d="m 146,190 h 41.5 v 27 H 146 Z m 0,0"
         clip-rule="nonzero"
         id="path9" />
    </clipPath>
    <clipPath
       id="7aa97b62e0">
      <path
         d="M 37.5,190 H 147 v 27 H 37.5 Z m 0,0"
         clip-rule="nonzero"
         id="path10" />
    </clipPath>
    <clipPath
       id="0f04ec1f6f">
      <path
         d="m 146,209 h 41.5 v 16.65625 H 146 Z m 0,0"
         clip-rule="nonzero"
         id="path11" />
    </clipPath>
    <clipPath
       id="c02ff94628">
      <path
         d="M 37.5,209 H 147 v 16.65625 H 37.5 Z m 0,0"
         clip-rule="nonzero"
         id="path12" />
    </clipPath>
    <clipPath
       id="1d1be3f633">
      <path
         d="m 150,236 h 116.50781 v 33 H 150 Z m 0,0"
         clip-rule="nonzero"
         id="path13" />
    </clipPath>
    <clipPath
       id="b2396c9894">
      <path
         d="M 116.50781,229.59375 H 157 v 45.75 h -40.49219 z m 0,0"
         clip-rule="nonzero"
         id="path14" />
    </clipPath>
  </defs>
  <g
     clip-path="url(#7b196b641d)"
     id="g15"
     transform="translate(-37.566406,-99.65625)">
    <path
       fill="#37d268"
       d="m 187.48437,157.39453 v 7.77344 L 146.84375,118.02734 V 99.597656 Z m 0,0"
       fill-opacity="1"
       fill-rule="nonzero"
       id="path15" />
  </g>
  <g
     clip-path="url(#2a7c6629ff)"
     id="g16"
     transform="translate(-37.566406,-99.65625)">
    <path
       fill="#1db954"
       d="M 146.84375,99.597656 V 118.02734 L 73.707031,165.16797 H 37.566406 v -4.81641 l 36.140625,-2.95703 z m 0,0"
       fill-opacity="1"
       fill-rule="nonzero"
       id="path16" />
  </g>
  <g
     clip-path="url(#3e85e417eb)"
     id="g17"
     transform="translate(-37.566406,-99.65625)">
    <path
       fill="#37d268"
       d="m 187.48437,171.83594 v 6.84375 l -40.64062,-38.82032 v -13.95703 z m 0,0"
       fill-opacity="1"
       fill-rule="nonzero"
       id="path17" />
  </g>
  <g
     clip-path="url(#acdf84763f)"
     id="g18"
     transform="translate(-37.566406,-99.65625)">
    <path
       fill="#1db954"
       d="m 146.84375,125.90234 v 13.95703 L 73.707031,178.67969 H 37.566406 v -4.60547 l 36.140625,-2.75391 z m 0,0"
       fill-opacity="1"
       fill-rule="nonzero"
       id="path18" />
  </g>
  <g
     clip-path="url(#ccf71d2e2d)"
     id="g19"
     transform="translate(-37.566406,-99.65625)">
    <path
       fill="#37d268"
       d="m 187.48437,186.24609 v 5.94532 l -40.64062,-30.46094 v -13.97656 z m 0,0"
       fill-opacity="1"
       fill-rule="nonzero"
       id="path19" />
  </g>
  <g
     clip-path="url(#ed62652428)"
     id="g20"
     transform="translate(-37.566406,-99.65625)">
    <path
       fill="#1db954"
       d="m 146.84375,147.75391 v 13.97656 L 73.707031,192.19141 H 37.566406 v -4.36719 l 36.140625,-2.54297 z m 0,0"
       fill-opacity="1"
       fill-rule="nonzero"
       id="path20" />
  </g>
  <g
     clip-path="url(#e074e0ffd9)"
     id="g21"
     transform="translate(-37.566406,-99.65625)">
    <path
       fill="#37d268"
       d="m 187.48437,200.07422 v 5.05469 l -40.64062,-22.17969 v -13.82031 z m 0,0"
       fill-opacity="1"
       fill-rule="nonzero"
       id="path21" />
  </g>
  <g
     clip-path="url(#4fc5840ab4)"
     id="g22"
     transform="translate(-37.566406,-99.65625)">
    <path
       fill="#1db954"
       d="m 146.84375,169.12891 v 13.82031 L 73.707031,205.12891 H 37.566406 v -4.19532 l 36.140625,-2.33984 z m 0,0"
       fill-opacity="1"
       fill-rule="nonzero"
       id="path22" />
  </g>
  <g
     clip-path="url(#02a3dee117)"
     id="g23"
     transform="translate(-37.566406,-99.65625)">
    <path
       fill="#37d268"
       d="m 187.48437,212.36719 v 4.1289 l -40.64062,-13.85937 v -12.23828 z m 0,0"
       fill-opacity="1"
       fill-rule="nonzero"
       id="path23" />
  </g>
  <g
     clip-path="url(#7aa97b62e0)"
     id="g24"
     transform="translate(-37.566406,-99.65625)">
    <path
       fill="#1db954"
       d="m 146.84375,190.39844 v 12.23828 L 73.707031,216.49609 H 37.566406 v -3.98828 l 36.140625,-2.09765 z m 0,0"
       fill-opacity="1"
       fill-rule="nonzero"
       id="path24" />
  </g>
  <g
     clip-path="url(#0f04ec1f6f)"
     id="g25"
     transform="translate(-37.566406,-99.65625)">
    <path
       fill="#37d268"
       d="m 187.48437,222.73047 v 3.19922 l -40.64062,-5.5 v -10.73047 z m 0,0"
       fill-opacity="1"
       fill-rule="nonzero"
       id="path25" />
  </g>
  <g
     clip-path="url(#c02ff94628)"
     id="g26"
     transform="translate(-37.566406,-99.65625)">
    <path
       fill="#1db954"
       d="m 146.84375,209.69922 v 10.73047 l -73.136719,5.5 H 37.566406 V 223 l 36.140625,-1.68359 z m 0,0"
       fill-opacity="1"
       fill-rule="nonzero"
       id="path26" />
  </g>
  <g
     fill="#212121"
     fill-opacity="1"
     id="g29"
     transform="translate(-37.566406,-99.65625)">
    <g
       transform="translate(191.5077,166.768)"
       id="g28">
      <g
         id="g27">
        <path
           d="M 7.46875,-7.1875 V 0 H 2.140625 v -19.75 h 6.46875 c 5.363281,0 8.046875,1.945312 8.046875,5.828125 0,2.292969 -1.117188,4.0625 -3.34375,5.3125 L 19.0625,0 h -6.046875 l -4.1875,-7.1875 z m 0,-4.015625 h 1 c 1.863281,0 2.796875,-0.820313 2.796875,-2.46875 0,-1.363281 -0.914063,-2.046875 -2.734375,-2.046875 h -1.0625 z m 0,0"
           id="path27" />
      </g>
    </g>
  </g>
  <g
     fill="#212121"
     fill-opacity="1"
     id="g32"
     transform="translate(-37.566406,-99.65625)">
    <g
       transform="translate(213.96848,166.768)"
       id="g31">
      <g
         id="g30">
        <path
           d="M 13.859375,0 H 2.140625 v -19.75 h 11.71875 v 4.28125 H 7.46875 v 3.109375 h 5.921875 v 4.28125 H 7.46875 v 3.734375 h 6.390625 z m 0,0"
           id="path29" />
      </g>
    </g>
  </g>
  <g
     fill="#212121"
     fill-opacity="1"
     id="g35"
     transform="translate(-37.566406,-99.65625)">
    <g
       transform="translate(232.88971,166.768)"
       id="g34">
      <g
         id="g33">
        <path
           d="M 14.25,0 13.28125,-3.703125 H 6.859375 L 5.859375,0 H 0 l 6.4375,-19.828125 h 7.125 L 20.09375,0 Z m -2.078125,-8.078125 -0.84375,-3.25 c -0.199219,-0.71875 -0.445313,-1.644531 -0.734375,-2.78125 -0.28125,-1.144531 -0.464844,-1.96875 -0.546875,-2.46875 -0.085937,0.460937 -0.246094,1.214844 -0.484375,2.265625 -0.242188,1.054688 -0.773438,3.132812 -1.59375,6.234375 z m 0,0"
           id="path32" />
      </g>
    </g>
  </g>
  <g
     fill="#212121"
     fill-opacity="1"
     id="g38"
     transform="translate(-37.566406,-99.65625)">
    <g
       transform="translate(256.71498,166.768)"
       id="g37">
      <g
         id="g36">
        <path
           d="M 2.140625,0 V -19.75 H 7.46875 v 15.4375 h 7.609375 V 0 Z m 0,0"
           id="path35" />
      </g>
    </g>
  </g>
  <g
     fill="#212121"
     fill-opacity="1"
     id="g41"
     transform="translate(-37.566406,-99.65625)">
    <g
       transform="translate(276.55486,166.768)"
       id="g40">
      <g
         id="g39">
        <path
           d="M 10.84375,0 H 5.515625 V -15.390625 H 0.6875 V -19.75 h 14.96875 v 4.359375 h -4.8125 z m 0,0"
           id="path38" />
      </g>
    </g>
  </g>
  <g
     fill="#212121"
     fill-opacity="1"
     id="g44"
     transform="translate(-37.566406,-99.65625)">
    <g
       transform="translate(296.63793,166.768)"
       id="g43">
      <g
         id="g42">
        <path
           d="M 9.1875,-12.4375 12.59375,-19.75 H 18.375 l -6.5,12.03125 V 0 H 6.5 V -7.546875 L 0,-19.75 h 5.8125 z m 0,0"
           id="path41" />
      </g>
    </g>
  </g>
  <g
     fill="#212121"
     fill-opacity="1"
     id="g47"
     transform="translate(-37.566406,-99.65625)">
    <g
       transform="translate(318.74988,166.768)"
       id="g46">
      <g
         id="g45" />
    </g>
  </g>
  <g
     fill="#212121"
     fill-opacity="1"
     id="g50"
     transform="translate(-37.566406,-99.65625)">
    <g
       transform="translate(191.5077,195.268)"
       id="g49">
      <g
         id="g48">
        <path
           d="M 13.859375,0 H 2.140625 v -19.75 h 11.71875 v 4.28125 H 7.46875 v 3.109375 h 5.921875 v 4.28125 H 7.46875 v 3.734375 h 6.390625 z m 0,0"
           id="path47" />
      </g>
    </g>
  </g>
  <g
     fill="#212121"
     fill-opacity="1"
     id="g53"
     transform="translate(-37.566406,-99.65625)">
    <g
       transform="translate(210.42893,195.268)"
       id="g52">
      <g
         id="g51">
        <path
           d="M 19.9375,0 H 13.75 L 9.90625,-6.171875 6.09375,0 H 0.046875 L 6.609375,-10.109375 0.453125,-19.75 h 5.90625 L 9.9375,-13.640625 13.359375,-19.75 h 6.09375 l -6.25,10.0625 z m 0,0"
           id="path50" />
      </g>
    </g>
  </g>
  <g
     fill="#212121"
     fill-opacity="1"
     id="g56"
     transform="translate(-37.566406,-99.65625)">
    <g
       transform="translate(234.17314,195.268)"
       id="g55">
      <g
         id="g54">
        <path
           d="m 16.46875,-13.46875 c 0,2.210938 -0.652344,3.917969 -1.953125,5.125 -1.304687,1.199219 -3.152344,1.796875 -5.546875,1.796875 h -1.5 V 0 H 2.140625 V -19.75 H 8.96875 c 2.5,0 4.375,0.546875 5.625,1.640625 1.25,1.085937 1.875,2.632813 1.875,4.640625 z m -9,2.5625 H 8.4375 c 0.800781,0 1.4375,-0.222656 1.90625,-0.671875 0.476562,-0.445313 0.71875,-1.066406 0.71875,-1.859375 0,-1.332031 -0.742188,-2 -2.21875,-2 h -1.375 z m 0,0"
           id="path53" />
      </g>
    </g>
  </g>
  <g
     fill="#212121"
     fill-opacity="1"
     id="g59"
     transform="translate(-37.566406,-99.65625)">
    <g
       transform="translate(255.39102,195.268)"
       id="g58">
      <g
         id="g57">
        <path
           d="M 13.859375,0 H 2.140625 v -19.75 h 11.71875 v 4.28125 H 7.46875 v 3.109375 h 5.921875 v 4.28125 H 7.46875 v 3.734375 h 6.390625 z m 0,0"
           id="path56" />
      </g>
    </g>
  </g>
  <g
     fill="#212121"
     fill-opacity="1"
     id="g62"
     transform="translate(-37.566406,-99.65625)">
    <g
       transform="translate(274.31225,195.268)"
       id="g61">
      <g
         id="g60">
        <path
           d="M 7.46875,-7.1875 V 0 H 2.140625 v -19.75 h 6.46875 c 5.363281,0 8.046875,1.945312 8.046875,5.828125 0,2.292969 -1.117188,4.0625 -3.34375,5.3125 L 19.0625,0 h -6.046875 l -4.1875,-7.1875 z m 0,-4.015625 h 1 c 1.863281,0 2.796875,-0.820313 2.796875,-2.46875 0,-1.363281 -0.914063,-2.046875 -2.734375,-2.046875 h -1.0625 z m 0,0"
           id="path59" />
      </g>
    </g>
  </g>
  <g
     fill="#212121"
     fill-opacity="1"
     id="g65"
     transform="translate(-37.566406,-99.65625)">
    <g
       transform="translate(296.77303,195.268)"
       id="g64">
      <g
         id="g63">
        <path
           d="M 10.84375,0 H 5.515625 V -15.390625 H 0.6875 V -19.75 h 14.96875 v 4.359375 h -4.8125 z m 0,0"
           id="path62" />
      </g>
    </g>
  </g>
  <g
     fill="#212121"
     fill-opacity="1"
     id="g68"
     transform="translate(-37.566406,-99.65625)">
    <g
       transform="translate(316.85609,195.268)"
       id="g67">
      <g
         id="g66">
        <path
           d="m 15.046875,-6 c 0,1.230469 -0.3125,2.320312 -0.9375,3.265625 -0.617187,0.949219 -1.511719,1.6875 -2.6875,2.21875 C 10.253906,0.00390625 8.882812,0.265625 7.3125,0.265625 6,0.265625 4.894531,0.175781 4,0 3.101562,-0.1875 2.175781,-0.507812 1.21875,-0.96875 v -4.765625 c 1.019531,0.53125 2.078125,0.945313 3.171875,1.234375 1.101563,0.292969 2.113281,0.4375 3.03125,0.4375 0.789063,0 1.367187,-0.132812 1.734375,-0.40625 0.375,-0.28125 0.5625,-0.640625 0.5625,-1.078125 0,-0.257813 -0.078125,-0.488281 -0.234375,-0.6875 -0.148437,-0.207031 -0.386719,-0.414063 -0.71875,-0.625 -0.324219,-0.207031 -1.199219,-0.632813 -2.625,-1.28125 C 4.859375,-8.722656 3.894531,-9.285156 3.25,-9.828125 2.601562,-10.378906 2.125,-11.007812 1.8125,-11.71875 1.5,-12.4375 1.34375,-13.28125 1.34375,-14.25 c 0,-1.820312 0.660156,-3.238281 1.984375,-4.25 1.332031,-1.019531 3.15625,-1.53125 5.46875,-1.53125 2.039063,0 4.125,0.46875 6.25,1.40625 l -1.625,4.125 c -1.855469,-0.84375 -3.449219,-1.265625 -4.78125,-1.265625 -0.699219,0 -1.210937,0.125 -1.53125,0.375 -0.3125,0.242187 -0.46875,0.539063 -0.46875,0.890625 0,0.386719 0.195313,0.734375 0.59375,1.046875 0.40625,0.304687 1.5,0.859375 3.28125,1.671875 1.695313,0.761719 2.875,1.585938 3.53125,2.46875 0.664063,0.875 1,1.980469 1,3.3125 z m 0,0"
           id="path65" />
      </g>
    </g>
  </g>
  <g
     fill="#212121"
     fill-opacity="1"
     id="g71"
     transform="translate(-37.566406,-99.65625)">
    <g
       transform="translate(191.5077,223.76799)"
       id="g70">
      <g
         id="g69">
        <path
           d="m 10.0625,-11.5625 h 8.53125 v 10.640625 c -2.3125,0.792969 -4.859375,1.1875 -7.640625,1.1875 -3.042969,0 -5.398437,-0.878906 -7.0625,-2.640625 -1.65625,-1.769531 -2.484375,-4.289062 -2.484375,-7.5625 0,-3.1875 0.90625,-5.664062 2.71875,-7.4375 1.820312,-1.769531 4.375,-2.65625 7.65625,-2.65625 1.238281,0 2.410156,0.121094 3.515625,0.359375 1.101563,0.230469 2.066406,0.523437 2.890625,0.875 l -1.6875,4.1875 c -1.429688,-0.695313 -2.992188,-1.046875 -4.6875,-1.046875 -1.5625,0 -2.773438,0.507812 -3.625,1.515625 -0.84375,1.011719 -1.265625,2.460937 -1.265625,4.34375 0,1.84375 0.382813,3.25 1.15625,4.21875 0.769531,0.96875 1.878906,1.453125 3.328125,1.453125 0.789062,0 1.519531,-0.070312 2.1875,-0.21875 V -7.4375 H 10.0625 Z m 0,0"
           id="path68" />
      </g>
    </g>
  </g>
  <g
     fill="#212121"
     fill-opacity="1"
     id="g74"
     transform="translate(-37.566406,-99.65625)">
    <g
       transform="translate(215.72475,223.76799)"
       id="g73">
      <g
         id="g72">
        <path
           d="M 7.46875,-7.1875 V 0 H 2.140625 v -19.75 h 6.46875 c 5.363281,0 8.046875,1.945312 8.046875,5.828125 0,2.292969 -1.117188,4.0625 -3.34375,5.3125 L 19.0625,0 h -6.046875 l -4.1875,-7.1875 z m 0,-4.015625 h 1 c 1.863281,0 2.796875,-0.820313 2.796875,-2.46875 0,-1.363281 -0.914063,-2.046875 -2.734375,-2.046875 h -1.0625 z m 0,0"
           id="path71" />
      </g>
    </g>
  </g>
  <g
     fill="#212121"
     fill-opacity="1"
     id="g77"
     transform="translate(-37.566406,-99.65625)">
    <g
       transform="translate(238.18553,223.76799)"
       id="g76">
      <g
         id="g75">
        <path
           d="m 20.625,-9.90625 c 0,3.324219 -0.820312,5.851562 -2.453125,7.578125 -1.625,1.730469 -4.011719,2.59375 -7.15625,2.59375 -3.105469,0 -5.484375,-0.863281 -7.140625,-2.59375 C 2.226562,-4.066406 1.40625,-6.601562 1.40625,-9.9375 c 0,-3.28125 0.820312,-5.785156 2.46875,-7.515625 1.644531,-1.738281 4.03125,-2.609375 7.15625,-2.609375 3.144531,0 5.53125,0.859375 7.15625,2.578125 1.625,1.71875 2.4375,4.246094 2.4375,7.578125 z m -13.59375,0 c 0,3.824219 1.328125,5.734375 3.984375,5.734375 1.34375,0 2.34375,-0.460937 3,-1.390625 C 14.671875,-6.488281 15,-7.9375 15,-9.90625 c 0,-1.96875 -0.335938,-3.421875 -1,-4.359375 -0.65625,-0.945313 -1.648438,-1.421875 -2.96875,-1.421875 -2.667969,0 -4,1.929688 -4,5.78125 z m 0,0"
           id="path74" />
      </g>
    </g>
  </g>
  <g
     fill="#212121"
     fill-opacity="1"
     id="g80"
     transform="translate(-37.566406,-99.65625)">
    <g
       transform="translate(263.96971,223.76799)"
       id="g79">
      <g
         id="g78">
        <path
           d="m 18.9375,-19.75 v 11.890625 c 0,2.585937 -0.734375,4.585937 -2.203125,6 -1.46875,1.417969 -3.578125,2.125 -6.328125,2.125 -2.699219,0 -4.773438,-0.6875 -6.21875,-2.0625 -1.4375,-1.375 -2.15625,-3.351563 -2.15625,-5.9375 V -19.75 h 5.359375 v 11.59375 c 0,1.398438 0.257813,2.414062 0.78125,3.046875 0.519531,0.625 1.289063,0.9375 2.3125,0.9375 1.09375,0 1.882813,-0.3125 2.375,-0.9375 0.488281,-0.625 0.734375,-1.648437 0.734375,-3.078125 V -19.75 Z m 0,0"
           id="path77" />
      </g>
    </g>
  </g>
  <g
     fill="#212121"
     fill-opacity="1"
     id="g83"
     transform="translate(-37.566406,-99.65625)">
    <g
       transform="translate(288.64608,223.76799)"
       id="g82">
      <g
         id="g81">
        <path
           d="m 16.46875,-13.46875 c 0,2.210938 -0.652344,3.917969 -1.953125,5.125 -1.304687,1.199219 -3.152344,1.796875 -5.546875,1.796875 h -1.5 V 0 H 2.140625 V -19.75 H 8.96875 c 2.5,0 4.375,0.546875 5.625,1.640625 1.25,1.085937 1.875,2.632813 1.875,4.640625 z m -9,2.5625 H 8.4375 c 0.800781,0 1.4375,-0.222656 1.90625,-0.671875 0.476562,-0.445313 0.71875,-1.066406 0.71875,-1.859375 0,-1.332031 -0.742188,-2 -2.21875,-2 h -1.375 z m 0,0"
           id="path80" />
      </g>
    </g>
  </g>
  <g
     clip-path="url(#1d1be3f633)"
     id="g84"
     transform="translate(-37.566406,-99.65625)">
    <path
       fill="#1db954"
       d="m 264.95312,243.61719 c -3.24218,0 -5.8789,-2.63672 -5.8789,-5.875 0,-0.83985 -0.67969,-1.52344 -1.51953,-1.52344 h -98.98047 c 0.78125,1.05078 1.40234,2.06641 1.80859,3.04297 h 95.77735 c 0.64062,3.70312 3.57031,6.63281 7.26953,7.26953 v 11.88281 c -3.69922,0.64063 -6.62891,3.57031 -7.26953,7.26953 h -102.25 c -0.89063,1.05078 -1.86329,2.07032 -2.95313,3.04297 h 106.59375 c 0.83984,0 1.51953,-0.68359 1.51953,-1.52344 0,-3.24218 2.64063,-5.875 5.87891,-5.875 0.83984,0 1.51953,-0.68359 1.51953,-1.51953 v -14.66406 c 0.004,-0.84766 -0.67578,-1.52734 -1.51563,-1.52734 z m 0,0"
       fill-opacity="1"
       fill-rule="nonzero"
       id="path83" />
  </g>
  <g
     clip-path="url(#b2396c9894)"
     id="g85"
     transform="translate(-37.566406,-99.65625)">
    <path
       fill="#1db954"
       d="m 152.17187,247.01172 c 0.0703,-2.77735 1.42579,-5.24219 4.00391,-7.33985 l 0.76953,-0.625 -0.47265,-0.86328 c -1.48438,-2.73828 -3.64063,-5.45703 -6.41797,-8.10156 l -0.49219,-0.47656 -2.47656,0.73047 c -6.71094,1.98047 -13.96094,1.98047 -20.6836,0 l -2.47265,-0.73047 -0.4961,0.47656 c -2.77343,2.64453 -4.93359,5.36328 -6.41406,8.10156 l -0.47656,0.86719 0.76953,0.625 c 2.58203,2.09766 3.92969,4.5625 4.00781,7.33984 0.10938,4.125 -2.64453,8.05469 -3.92968,9.21094 l -0.6875,0.63281 0.44531,0.81641 c 5.72656,10.49609 18.51172,17.10547 19.05078,17.39063 l 0.55078,0.26953 0.53906,-0.26953 c 0.53906,-0.28125 13.32813,-6.89454 19.05469,-17.39063 l 0.44531,-0.81641 -0.6914,-0.63281 c -1.28125,-1.16015 -4.03907,-5.08984 -3.92579,-9.21484 z m -6.57031,1.58203 -10.55078,10.55078 c -0.50781,0.50781 -1.33594,0.50781 -1.84375,0 l -5.3164,-5.31641 c -0.72657,-0.73046 -0.72657,-1.90625 0,-2.63671 0.72656,-0.72657 1.91015,-0.72657 2.63281,0 l 3.60547,3.60156 8.83593,-8.83594 c 0.72657,-0.72656 1.90625,-0.72656 2.63282,0 0.73046,0.73047 0.73437,1.90625 0.004,2.63672 z m 0,0"
       fill-opacity="1"
       fill-rule="nonzero"
       id="path84" />
  </g>
  <path
     fill="#1db954"
     d="m 136.96093,154.97656 c 0,0.3711 -0.0937,0.77735 -0.27734,1.21485 -0.18359,0.4375 -0.47656,0.86718 -0.87109,1.28515 -0.39454,0.42188 -0.89844,0.76172 -1.51563,1.02344 -0.61719,0.26172 -1.33203,0.39453 -2.15234,0.39453 -0.6211,0 -1.17969,-0.0586 -1.69141,-0.17578 -0.50781,-0.11328 -0.96875,-0.30078 -1.38281,-0.54688 -0.41406,-0.25 -0.79688,-0.57421 -1.14453,-0.98046 -0.3086,-0.3711 -0.57422,-0.78516 -0.79297,-1.23829 -0.21875,-0.46093 -0.38281,-0.94921 -0.49219,-1.46484 -0.10937,-0.51953 -0.16406,-1.07031 -0.16406,-1.65625 0,-0.94531 0.14062,-1.79297 0.41406,-2.53906 0.27344,-0.75 0.66797,-1.38672 1.17969,-1.91797 0.51562,-0.53125 1.11719,-0.9375 1.80469,-1.21875 0.6914,-0.27734 1.42578,-0.41406 2.20703,-0.41406 0.94922,0 1.79687,0.1875 2.53906,0.57031 0.74219,0.38281 1.3125,0.84766 1.71094,1.41016 0.39453,0.55468 0.59375,1.08593 0.59375,1.58203 0,0.27734 -0.0937,0.51562 -0.28516,0.72265 -0.19531,0.20313 -0.42578,0.3125 -0.69922,0.3125 -0.30469,0 -0.53125,-0.0742 -0.6875,-0.21875 -0.15234,-0.14453 -0.32031,-0.39453 -0.50781,-0.74609 -0.30859,-0.58203 -0.67578,-1.01953 -1.09766,-1.30469 -0.41797,-0.28906 -0.9375,-0.43359 -1.55078,-0.43359 -0.97656,0 -1.7539,0.37109 -2.33594,1.11328 -0.58593,0.74219 -0.87109,1.79687 -0.87109,3.16406 0,0.91406 0.12891,1.67578 0.38672,2.28516 0.25391,0.60937 0.62109,1.05859 1.08984,1.35547 0.47266,0.30078 1.01953,0.45312 1.65625,0.45312 0.6836,0 1.26172,-0.17187 1.73438,-0.51172 0.46875,-0.33984 0.82812,-0.83984 1.07031,-1.49609 0.10156,-0.30859 0.22656,-0.55859 0.375,-0.75781 0.15234,-0.19532 0.39063,-0.28907 0.72266,-0.28907 0.28125,0 0.52343,0.0977 0.72656,0.29297 0.21094,0.19141 0.30859,0.4375 0.30859,0.73047 z m 0,0"
     fill-opacity="1"
     fill-rule="nonzero"
     id="path85" />
  <path
     fill="#1db954"
     d="m 147.25781,148.77344 h -5.36328 v 2.88672 h 4.9414 c 0.36328,0 0.63282,0.082 0.8125,0.24609 0.17969,0.16016 0.26953,0.375 0.26953,0.64453 0,0.26563 -0.0898,0.48438 -0.26562,0.65625 -0.17578,0.16797 -0.44922,0.25391 -0.81641,0.25391 h -4.9414 v 3.34375 h 5.54687 c 0.375,0 0.65625,0.0859 0.84375,0.26172 0.19141,0.17578 0.28516,0.40625 0.28516,0.69531 0,0.27734 -0.0937,0.5039 -0.28516,0.67578 -0.1875,0.17578 -0.46875,0.26172 -0.84375,0.26172 h -6.47265 c -0.51563,0 -0.89063,-0.11719 -1.11719,-0.34375 -0.22656,-0.23047 -0.34375,-0.59766 -0.34375,-1.11328 v -8.83594 c 0,-0.34375 0.0547,-0.62109 0.15625,-0.83984 0.10156,-0.21875 0.26172,-0.375 0.47656,-0.47266 0.21875,-0.0977 0.49219,-0.14844 0.82813,-0.14844 h 6.28906 c 0.38281,0 0.66015,0.0859 0.84375,0.25 0.18359,0.16797 0.28125,0.39063 0.28125,0.66016 0,0.27734 -0.0977,0.5 -0.28125,0.66797 -0.17969,0.16406 -0.46094,0.25 -0.84375,0.25 z m 0,0"
     fill-opacity="1"
     fill-rule="nonzero"
     id="path86" />
  <path
     fill="#1db954"
     d="m 154.07812,153.66016 h -0.83594 v 3.77734 c 0,0.5 -0.10937,0.86719 -0.32812,1.09766 -0.21875,0.23437 -0.50781,0.35156 -0.85938,0.35156 -0.3789,0 -0.67187,-0.125 -0.8789,-0.36719 -0.21094,-0.24609 -0.31641,-0.60937 -0.31641,-1.08594 v -9.04687 c 0,-0.51172 0.11719,-0.88672 0.34375,-1.11328 0.23047,-0.23047 0.60156,-0.34375 1.11328,-0.34375 h 3.875 c 0.53516,0 0.99219,0.0234 1.3711,0.0703 0.3789,0.0469 0.71875,0.13672 1.02734,0.27734 0.36719,0.15625 0.69141,0.37891 0.97656,0.66407 0.28125,0.28906 0.4961,0.625 0.64453,1.00781 0.14844,0.3789 0.21875,0.78906 0.21875,1.21484 0,0.87891 -0.24609,1.57813 -0.73828,2.10156 -0.49219,0.51954 -1.24219,0.89454 -2.25,1.11329 0.42188,0.22265 0.82813,0.55468 1.21094,0.99218 0.38672,0.4375 0.73047,0.90625 1.03516,1.40235 0.30078,0.49218 0.53515,0.9414 0.70312,1.33984 0.16797,0.39844 0.25391,0.67188 0.25391,0.82422 0,0.15234 -0.0508,0.30859 -0.14844,0.46094 -0.0977,0.15234 -0.23438,0.27343 -0.40625,0.35937 -0.17188,0.0899 -0.37109,0.13281 -0.59766,0.13281 -0.26562,0 -0.49218,-0.0625 -0.67187,-0.1875 -0.17969,-0.125 -0.33985,-0.28515 -0.47266,-0.47656 -0.13281,-0.1914 -0.30859,-0.47656 -0.53125,-0.84765 l -0.95312,-1.58985 c -0.34375,-0.58203 -0.64844,-1.02734 -0.91797,-1.33203 -0.26953,-0.30469 -0.54297,-0.51172 -0.82031,-0.625 -0.27735,-0.11328 -0.625,-0.17187 -1.04688,-0.17187 z m 1.36328,-4.9375 h -2.19922 v 3.23437 h 2.13282 c 0.57421,0 1.05468,-0.0508 1.44531,-0.15234 0.39062,-0.0977 0.6875,-0.26563 0.89453,-0.50391 0.20703,-0.24219 0.30859,-0.56641 0.30859,-0.98047 0,-0.32812 -0.082,-0.61328 -0.25,-0.86328 -0.16406,-0.24609 -0.39062,-0.42969 -0.6875,-0.55469 -0.27734,-0.12109 -0.82812,-0.17968 -1.64453,-0.17968 z m 0,0"
     fill-opacity="1"
     fill-rule="nonzero"
     id="path87" />
  <path
     fill="#1db954"
     d="m 169.91406,148.90234 h -2.59766 v 8.53907 c 0,0.49609 -0.11328,0.85937 -0.33203,1.09765 -0.21875,0.24219 -0.5,0.35547 -0.84766,0.35547 -0.35156,0 -0.63671,-0.12109 -0.85937,-0.35937 -0.22266,-0.23829 -0.33594,-0.60547 -0.33594,-1.09375 v -8.53907 h -2.60156 c -0.40625,0 -0.70313,-0.0898 -0.90625,-0.26953 -0.19531,-0.17969 -0.29688,-0.41797 -0.29688,-0.71094 0,-0.30468 0.10547,-0.54687 0.3086,-0.72265 0.20703,-0.17578 0.50781,-0.26563 0.89453,-0.26563 h 7.57031 c 0.41016,0 0.71875,0.0898 0.91797,0.27735 0.19922,0.17968 0.30078,0.41797 0.30078,0.71484 0,0.29297 -0.10547,0.53125 -0.30469,0.71094 -0.19921,0.17578 -0.5039,0.26562 -0.91015,0.26562 z m 0,0"
     fill-opacity="1"
     fill-rule="nonzero"
     id="path88" />
  <path
     fill="#1db954"
     d="m 173.05468,157.4375 v -9.26172 c 0,-0.47656 0.11328,-0.84375 0.33203,-1.08203 0.21485,-0.23828 0.5,-0.35938 0.84766,-0.35938 0.35938,0 0.64453,0.1211 0.86719,0.35547 0.22265,0.23828 0.33594,0.59766 0.33594,1.08594 v 9.26172 c 0,0.48828 -0.11329,0.84766 -0.33594,1.09375 -0.22266,0.24219 -0.50781,0.35937 -0.86719,0.35937 -0.34375,0 -0.625,-0.12109 -0.84375,-0.36328 -0.21875,-0.24609 -0.33594,-0.60937 -0.33594,-1.08984 z m 0,0"
     fill-opacity="1"
     fill-rule="nonzero"
     id="path89" />
  <path
     fill="#1db954"
     d="m 185.53515,148.77344 h -4.6914 v 3.00781 h 3.91796 c 0.36329,0 0.63672,0.082 0.81641,0.24219 0.17969,0.16406 0.26953,0.38281 0.26953,0.65625 0,0.27343 -0.0898,0.48828 -0.27734,0.65234 -0.17969,0.15625 -0.44922,0.23828 -0.8086,0.23828 h -3.91796 v 3.8711 c 0,0.49609 -0.11329,0.85937 -0.33594,1.09765 -0.22266,0.24219 -0.50391,0.35547 -0.85156,0.35547 -0.35157,0 -0.63672,-0.11719 -0.85938,-0.35937 -0.22266,-0.23829 -0.33594,-0.60547 -0.33594,-1.09375 v -9.04688 c 0,-0.33984 0.0508,-0.62109 0.15625,-0.83984 0.10157,-0.21485 0.25782,-0.3711 0.47266,-0.46875 0.21875,-0.0977 0.49219,-0.15235 0.83203,-0.15235 h 5.61328 c 0.37891,0 0.65625,0.0859 0.84375,0.25391 0.1836,0.16797 0.27735,0.39062 0.27735,0.66016 0,0.27734 -0.0937,0.5 -0.27735,0.66796 -0.1875,0.17188 -0.46484,0.25782 -0.84375,0.25782 z m 0,0"
     fill-opacity="1"
     fill-rule="nonzero"
     id="path90" />
  <path
     fill="#1db954"
     d="m 188.93359,157.4375 v -9.26172 c 0,-0.47656 0.11328,-0.84375 0.33203,-1.08203 0.21875,-0.23828 0.5,-0.35938 0.84766,-0.35938 0.35937,0 0.64843,0.1211 0.87109,0.35547 0.22266,0.23828 0.33203,0.59766 0.33203,1.08594 v 9.26172 c 0,0.48828 -0.10937,0.84766 -0.33203,1.09375 -0.22266,0.24219 -0.51172,0.35937 -0.87109,0.35937 -0.34375,0 -0.625,-0.12109 -0.84375,-0.36328 -0.22266,-0.24609 -0.33594,-0.60937 -0.33594,-1.08984 z m 0,0"
     fill-opacity="1"
     fill-rule="nonzero"
     id="path91" />
  <path
     fill="#1db954"
     d="m 202.13671,148.77344 h -5.36328 v 2.88672 h 4.94141 c 0.36328,0 0.63281,0.082 0.8125,0.24609 0.17969,0.16016 0.26953,0.375 0.26953,0.64453 0,0.26563 -0.0898,0.48438 -0.26562,0.65625 -0.17579,0.16797 -0.44922,0.25391 -0.81641,0.25391 h -4.94141 v 3.34375 h 5.54688 c 0.375,0 0.65625,0.0859 0.84375,0.26172 0.1914,0.17578 0.28515,0.40625 0.28515,0.69531 0,0.27734 -0.0937,0.5039 -0.28515,0.67578 -0.1875,0.17578 -0.46875,0.26172 -0.84375,0.26172 h -6.47266 c -0.51562,0 -0.89062,-0.11719 -1.11719,-0.34375 -0.22656,-0.23047 -0.34375,-0.59766 -0.34375,-1.11328 v -8.83594 c 0,-0.34375 0.0547,-0.62109 0.15625,-0.83984 0.10157,-0.21875 0.26172,-0.375 0.47657,-0.47266 0.21093,-0.0977 0.49218,-0.14844 0.82812,-0.14844 h 6.28906 c 0.38282,0 0.66016,0.0859 0.84375,0.25 0.1836,0.16797 0.27735,0.39063 0.27735,0.66016 0,0.27734 -0.0937,0.5 -0.27735,0.66797 -0.18359,0.16406 -0.46484,0.25 -0.84375,0.25 z m 0,0"
     fill-opacity="1"
     fill-rule="nonzero"
     id="path92" />
  <path
     fill="#1db954"
     d="m 207.23046,146.93359 h 3.10157 c 0.80468,0 1.5,0.0742 2.07812,0.22266 0.57813,0.15234 1.10156,0.42969 1.57031,0.84375 1.22657,1.05078 1.83985,2.64453 1.83985,4.78125 0,0.70703 -0.0625,1.35156 -0.1836,1.93359 -0.125,0.58203 -0.3125,1.10938 -0.57031,1.57422 -0.25781,0.46875 -0.58594,0.88672 -0.98437,1.25781 -0.32032,0.28125 -0.66016,0.50782 -1.03516,0.67969 -0.37109,0.17188 -0.77344,0.29297 -1.20703,0.35938 -0.43359,0.0703 -0.91797,0.10547 -1.45703,0.10547 h -3.10156 c -0.4336,0 -0.75782,-0.0664 -0.97657,-0.19922 -0.21875,-0.13282 -0.36328,-0.31641 -0.42578,-0.55078 -0.0703,-0.24219 -0.10156,-0.55079 -0.10156,-0.92579 v -8.62109 c 0,-0.51172 0.11719,-0.88672 0.34375,-1.11328 0.22266,-0.23047 0.59375,-0.34766 1.10937,-0.34766 z m 0.92188,1.88672 v 7.98047 h 1.80078 c 0.39453,0 0.70703,-0.008 0.92969,-0.0312 0.22265,-0.0195 0.46094,-0.0703 0.69922,-0.15625 0.24218,-0.0859 0.44922,-0.20703 0.625,-0.35937 0.79687,-0.67579 1.19531,-1.83594 1.19531,-3.48047 0,-1.16016 -0.17578,-2.03125 -0.52734,-2.60547 -0.35157,-0.57422 -0.78125,-0.94531 -1.29297,-1.09766 -0.51172,-0.16015 -1.13282,-0.23828 -1.85938,-0.23828 h -1.57031 z m 0,0"
     fill-opacity="1"
     fill-rule="nonzero"
     id="path93" />
</svg>
